<svg width="307" height="129" viewBox="0 0 307 129" fill="none" xmlns="http://www.w3.org/2000/svg">
<path d="M74.9141 19.4844H61.4844V47H55.3906V19.4844H41.9375V13.3906H74.9141V19.4844ZM84.9219 16.4609H78.8281V10.9531H84.9219V16.4609ZM84.9219 47H78.8281V21.6641H84.9219V47ZM113.398 47H107.305V30.1953C107.305 29.3984 107.094 28.7969 106.672 28.3906C106.25 27.9688 105.625 27.7578 104.797 27.7578H96.875V47H90.7812V24.6875C90.7812 24.2656 90.8594 23.875 91.0156 23.5156C91.1719 23.1406 91.3906 22.8203 91.6719 22.5547C91.9531 22.2734 92.2812 22.0547 92.6562 21.8984C93.0312 21.7422 93.4297 21.6641 93.8516 21.6641H104.844C105.688 21.6641 106.594 21.8125 107.562 22.1094C108.531 22.4062 109.453 22.8828 110.328 23.5391V21.6641H118.578C119.156 21.6641 119.766 21.7344 120.406 21.875C121.047 22 121.68 22.2031 122.305 22.4844C122.945 22.7656 123.555 23.1328 124.133 23.5859C124.711 24.0234 125.219 24.5625 125.656 25.2031C126.094 25.8281 126.445 26.5547 126.711 27.3828C126.977 28.2109 127.109 29.1484 127.109 30.1953V47H121.016V30.1953C121.016 29.3984 120.812 28.7969 120.406 28.3906C120.016 27.9688 119.406 27.7578 118.578 27.7578H113.094C113.297 28.5078 113.398 29.3203 113.398 30.1953V47ZM159.992 30.0547C159.992 30.8984 159.844 31.8125 159.547 32.7969C159.25 33.7656 158.766 34.6719 158.094 35.5156C157.438 36.3438 156.57 37.0391 155.492 37.6016C154.43 38.1641 153.133 38.4453 151.602 38.4453H140.609V32.6562H151.602C152.43 32.6562 153.07 32.4062 153.523 31.9062C153.977 31.3906 154.203 30.7578 154.203 30.0078C154.203 29.2109 153.945 28.5859 153.43 28.1328C152.93 27.6797 152.32 27.4531 151.602 27.4531H140.609C139.781 27.4531 139.141 27.7109 138.688 28.2266C138.234 28.7266 138.008 29.3516 138.008 30.1016V38.6094C138.008 39.4219 138.258 40.0547 138.758 40.5078C139.273 40.9609 139.906 41.1875 140.656 41.1875H151.602V47H140.609C139.766 47 138.852 46.8516 137.867 46.5547C136.898 46.2578 135.992 45.7812 135.148 45.125C134.32 44.4531 133.625 43.5859 133.062 42.5234C132.5 41.4453 132.219 40.1406 132.219 38.6094V30.0547C132.219 29.2109 132.367 28.3047 132.664 27.3359C132.961 26.3516 133.438 25.4453 134.094 24.6172C134.766 23.7734 135.633 23.0703 136.695 22.5078C137.773 21.9453 139.078 21.6641 140.609 21.6641H151.602C152.445 21.6641 153.352 21.8125 154.32 22.1094C155.305 22.4062 156.211 22.8906 157.039 23.5625C157.883 24.2188 158.586 25.0859 159.148 26.1641C159.711 27.2266 159.992 28.5234 159.992 30.0547ZM175.227 47H172.508C171.633 47 170.695 46.8516 169.695 46.5547C168.711 46.2578 167.789 45.7734 166.93 45.1016C166.07 44.4141 165.359 43.5312 164.797 42.4531C164.234 41.3594 163.953 40.0234 163.953 38.4453V10.9531H170.047V38.4453C170.047 39.1953 170.281 39.7969 170.75 40.25C171.219 40.6875 171.805 40.9062 172.508 40.9062H175.227V47ZM206.398 30.0547C206.398 30.8984 206.25 31.8125 205.953 32.7969C205.656 33.7656 205.172 34.6719 204.5 35.5156C203.844 36.3438 202.977 37.0391 201.898 37.6016C200.836 38.1641 199.539 38.4453 198.008 38.4453H187.016V32.6562H198.008C198.836 32.6562 199.477 32.4062 199.93 31.9062C200.383 31.3906 200.609 30.7578 200.609 30.0078C200.609 29.2109 200.352 28.5859 199.836 28.1328C199.336 27.6797 198.727 27.4531 198.008 27.4531H187.016C186.188 27.4531 185.547 27.7109 185.094 28.2266C184.641 28.7266 184.414 29.3516 184.414 30.1016V38.6094C184.414 39.4219 184.664 40.0547 185.164 40.5078C185.68 40.9609 186.312 41.1875 187.062 41.1875H198.008V47H187.016C186.172 47 185.258 46.8516 184.273 46.5547C183.305 46.2578 182.398 45.7812 181.555 45.125C180.727 44.4531 180.031 43.5859 179.469 42.5234C178.906 41.4453 178.625 40.1406 178.625 38.6094V30.0547C178.625 29.2109 178.773 28.3047 179.07 27.3359C179.367 26.3516 179.844 25.4453 180.5 24.6172C181.172 23.7734 182.039 23.0703 183.102 22.5078C184.18 21.9453 185.484 21.6641 187.016 21.6641H198.008C198.852 21.6641 199.758 21.8125 200.727 22.1094C201.711 22.4062 202.617 22.8906 203.445 23.5625C204.289 24.2188 204.992 25.0859 205.555 26.1641C206.117 27.2266 206.398 28.5234 206.398 30.0547ZM234.992 38.4453C234.992 39.4922 234.859 40.4375 234.594 41.2812C234.328 42.1094 233.977 42.8438 233.539 43.4844C233.102 44.1094 232.594 44.6484 232.016 45.1016C231.438 45.5391 230.828 45.8984 230.188 46.1797C229.562 46.4609 228.922 46.6719 228.266 46.8125C227.625 46.9375 227.016 47 226.438 47H209.938V40.9062H226.391C227.219 40.9062 227.844 40.6953 228.266 40.2734C228.688 39.8516 228.898 39.2422 228.898 38.4453C228.82 36.8203 228 36.0078 226.438 36.0078H216.992C215.648 36.0078 214.508 35.7734 213.57 35.3047C212.633 34.8359 211.867 34.25 211.273 33.5469C210.695 32.8438 210.273 32.0859 210.008 31.2734C209.758 30.4609 209.633 29.7031 209.633 29C209.633 27.6406 209.875 26.5 210.359 25.5781C210.844 24.6406 211.453 23.8828 212.188 23.3047C212.922 22.7266 213.719 22.3125 214.578 22.0625C215.438 21.7969 216.242 21.6641 216.992 21.6641H231.969V27.7578H217.039C216.727 27.7578 216.477 27.7969 216.289 27.875C216.117 27.9375 215.984 28.0312 215.891 28.1562C215.812 28.2656 215.766 28.3906 215.75 28.5312C215.734 28.6562 215.727 28.7812 215.727 28.9062C215.742 29.1562 215.789 29.3516 215.867 29.4922C215.945 29.6328 216.039 29.7344 216.148 29.7969C216.273 29.8594 216.406 29.8984 216.547 29.9141C216.703 29.9141 216.852 29.9141 216.992 29.9141H226.438C228 29.9141 229.328 30.1953 230.422 30.7578C231.516 31.3203 232.398 32.0312 233.07 32.8906C233.742 33.7344 234.227 34.6562 234.523 35.6562C234.836 36.6562 234.992 37.5859 234.992 38.4453ZM263.773 38.4453C263.773 39.4922 263.641 40.4375 263.375 41.2812C263.109 42.1094 262.758 42.8438 262.32 43.4844C261.883 44.1094 261.375 44.6484 260.797 45.1016C260.219 45.5391 259.609 45.8984 258.969 46.1797C258.344 46.4609 257.703 46.6719 257.047 46.8125C256.406 46.9375 255.797 47 255.219 47H238.719V40.9062H255.172C256 40.9062 256.625 40.6953 257.047 40.2734C257.469 39.8516 257.68 39.2422 257.68 38.4453C257.602 36.8203 256.781 36.0078 255.219 36.0078H245.773C244.43 36.0078 243.289 35.7734 242.352 35.3047C241.414 34.8359 240.648 34.25 240.055 33.5469C239.477 32.8438 239.055 32.0859 238.789 31.2734C238.539 30.4609 238.414 29.7031 238.414 29C238.414 27.6406 238.656 26.5 239.141 25.5781C239.625 24.6406 240.234 23.8828 240.969 23.3047C241.703 22.7266 242.5 22.3125 243.359 22.0625C244.219 21.7969 245.023 21.6641 245.773 21.6641H260.75V27.7578H245.82C245.508 27.7578 245.258 27.7969 245.07 27.875C244.898 27.9375 244.766 28.0312 244.672 28.1562C244.594 28.2656 244.547 28.3906 244.531 28.5312C244.516 28.6562 244.508 28.7812 244.508 28.9062C244.523 29.1562 244.57 29.3516 244.648 29.4922C244.727 29.6328 244.82 29.7344 244.93 29.7969C245.055 29.8594 245.188 29.8984 245.328 29.9141C245.484 29.9141 245.633 29.9141 245.773 29.9141H255.219C256.781 29.9141 258.109 30.1953 259.203 30.7578C260.297 31.3203 261.18 32.0312 261.852 32.8906C262.523 33.7344 263.008 34.6562 263.305 35.6562C263.617 36.6562 263.773 37.5859 263.773 38.4453Z" fill="white"/>
<path d="M12.9062 111H4.78125V66.1875H12.9062V111ZM58.9375 111H50.8125V92.25C50.8125 91.1875 50.625 90.2396 50.25 89.4062C49.8958 88.5521 49.4062 87.8229 48.7812 87.2188C48.1562 86.6146 47.4167 86.1562 46.5625 85.8438C45.7292 85.5104 44.8229 85.3438 43.8438 85.3438H29.625V111H21.5V81.25C21.5 80.6875 21.6042 80.1667 21.8125 79.6875C22.0208 79.1875 22.3125 78.7604 22.6875 78.4062C23.0625 78.0312 23.5 77.7396 24 77.5312C24.5 77.3229 25.0312 77.2188 25.5938 77.2188H43.9062C44.9271 77.2188 46 77.3333 47.125 77.5625C48.2708 77.7917 49.3958 78.1667 50.5 78.6875C51.625 79.1875 52.6875 79.8333 53.6875 80.625C54.7083 81.3958 55.6042 82.3438 56.375 83.4688C57.1667 84.5729 57.7917 85.8542 58.25 87.3125C58.7083 88.7708 58.9375 90.4167 58.9375 92.25V111ZM95.7812 85.3438H81.5938V111H73.375V85.3438H62.8125V77.2188H73.375V66.1875H81.5938V77.2188H95.7812V85.3438ZM137.344 88.4062C137.344 89.5312 137.146 90.75 136.75 92.0625C136.354 93.3542 135.708 94.5625 134.812 95.6875C133.938 96.7917 132.781 97.7188 131.344 98.4688C129.927 99.2188 128.198 99.5938 126.156 99.5938H111.5V91.875H126.156C127.26 91.875 128.115 91.5417 128.719 90.875C129.323 90.1875 129.625 89.3438 129.625 88.3438C129.625 87.2812 129.281 86.4479 128.594 85.8438C127.927 85.2396 127.115 84.9375 126.156 84.9375H111.5C110.396 84.9375 109.542 85.2812 108.938 85.9688C108.333 86.6354 108.031 87.4688 108.031 88.4688V99.8125C108.031 100.896 108.365 101.74 109.031 102.344C109.719 102.948 110.562 103.25 111.562 103.25H126.156V111H111.5C110.375 111 109.156 110.802 107.844 110.406C106.552 110.01 105.344 109.375 104.219 108.5C103.115 107.604 102.188 106.448 101.438 105.031C100.688 103.594 100.312 101.854 100.312 99.8125V88.4062C100.312 87.2812 100.51 86.0729 100.906 84.7812C101.302 83.4688 101.938 82.2604 102.812 81.1562C103.708 80.0312 104.865 79.0938 106.281 78.3438C107.719 77.5938 109.458 77.2188 111.5 77.2188H126.156C127.281 77.2188 128.49 77.4167 129.781 77.8125C131.094 78.2083 132.302 78.8542 133.406 79.75C134.531 80.625 135.469 81.7812 136.219 83.2188C136.969 84.6354 137.344 86.3646 137.344 88.4062ZM172.375 85.3438H154.094C152.99 85.3438 152.156 85.625 151.594 86.1875C151.031 86.7292 150.75 87.5312 150.75 88.5938V111H142.625V88.5938C142.625 87.1979 142.802 85.9479 143.156 84.8438C143.51 83.7396 143.979 82.7708 144.562 81.9375C145.167 81.0833 145.854 80.3646 146.625 79.7812C147.396 79.1771 148.198 78.6875 149.031 78.3125C149.885 77.9375 150.74 77.6667 151.594 77.5C152.469 77.3125 153.281 77.2188 154.031 77.2188H172.375V85.3438ZM186 70.2812H177.875V62.9375H186V70.2812ZM186 111H177.875V77.2188H186V111ZM230.562 99.5938C230.562 100.99 230.385 102.25 230.031 103.375C229.677 104.479 229.208 105.458 228.625 106.312C228.042 107.146 227.365 107.865 226.594 108.469C225.823 109.052 225.01 109.531 224.156 109.906C223.323 110.281 222.469 110.562 221.594 110.75C220.74 110.917 219.927 111 219.156 111H204.5C203.375 111 202.146 110.802 200.812 110.406C199.479 110.01 198.24 109.365 197.094 108.469C195.969 107.552 195.021 106.375 194.25 104.938C193.5 103.479 193.125 101.698 193.125 99.5938V88.5938C193.125 86.5104 193.5 84.75 194.25 83.3125C195.021 81.8542 195.969 80.6771 197.094 79.7812C198.24 78.8646 199.479 78.2083 200.812 77.8125C202.146 77.4167 203.375 77.2188 204.5 77.2188H219.156C221.24 77.2188 223.01 77.5938 224.469 78.3438C225.927 79.0938 227.104 80.0417 228 81.1875C228.896 82.3125 229.542 83.5417 229.938 84.875C230.354 86.2083 230.562 87.4479 230.562 88.5938V99.5938ZM222.438 88.6562C222.438 87.5312 222.156 86.6979 221.594 86.1562C221.031 85.6146 220.219 85.3438 219.156 85.3438H204.562C203.479 85.3438 202.656 85.625 202.094 86.1875C201.531 86.7292 201.25 87.5312 201.25 88.5938V99.5938C201.25 100.656 201.531 101.469 202.094 102.031C202.656 102.594 203.479 102.875 204.562 102.875H219.156C220.26 102.875 221.083 102.594 221.625 102.031C222.167 101.469 222.438 100.656 222.438 99.5938V88.6562ZM267.062 85.3438H248.781C247.677 85.3438 246.844 85.625 246.281 86.1875C245.719 86.7292 245.438 87.5312 245.438 88.5938V111H237.312V88.5938C237.312 87.1979 237.49 85.9479 237.844 84.8438C238.198 83.7396 238.667 82.7708 239.25 81.9375C239.854 81.0833 240.542 80.3646 241.312 79.7812C242.083 79.1771 242.885 78.6875 243.719 78.3125C244.573 77.9375 245.427 77.6667 246.281 77.5C247.156 77.3125 247.969 77.2188 248.719 77.2188H267.062V85.3438ZM305.094 99.5938C305.094 100.99 304.917 102.25 304.562 103.375C304.208 104.479 303.74 105.458 303.156 106.312C302.573 107.146 301.896 107.865 301.125 108.469C300.354 109.052 299.542 109.531 298.688 109.906C297.854 110.281 297 110.562 296.125 110.75C295.271 110.917 294.458 111 293.688 111H271.688V102.875H293.625C294.729 102.875 295.562 102.594 296.125 102.031C296.688 101.469 296.969 100.656 296.969 99.5938C296.865 97.4271 295.771 96.3438 293.688 96.3438H281.094C279.302 96.3438 277.781 96.0312 276.531 95.4062C275.281 94.7812 274.26 94 273.469 93.0625C272.698 92.125 272.135 91.1146 271.781 90.0312C271.448 88.9479 271.281 87.9375 271.281 87C271.281 85.1875 271.604 83.6667 272.25 82.4375C272.896 81.1875 273.708 80.1771 274.688 79.4062C275.667 78.6354 276.729 78.0833 277.875 77.75C279.021 77.3958 280.094 77.2188 281.094 77.2188H301.062V85.3438H281.156C280.74 85.3438 280.406 85.3958 280.156 85.5C279.927 85.5833 279.75 85.7083 279.625 85.875C279.521 86.0208 279.458 86.1875 279.438 86.375C279.417 86.5417 279.406 86.7083 279.406 86.875C279.427 87.2083 279.49 87.4688 279.594 87.6562C279.698 87.8438 279.823 87.9792 279.969 88.0625C280.135 88.1458 280.312 88.1979 280.5 88.2188C280.708 88.2188 280.906 88.2188 281.094 88.2188H293.688C295.771 88.2188 297.542 88.5938 299 89.3438C300.458 90.0938 301.635 91.0417 302.531 92.1875C303.427 93.3125 304.073 94.5417 304.469 95.875C304.885 97.2083 305.094 98.4479 305.094 99.5938Z" fill="#5F3613"/>
</svg>
